<?xml version="1.0" encoding="UTF-8" standalone="no"?>
<!-- Created with Inkscape (http://www.inkscape.org/) -->

<svg
   width="56.241257mm"
   height="42.180943mm"
   viewBox="0 0 56.241256 42.180942"
   version="1.1"
   id="svg5"
   inkscape:version="1.2.1 (9c6d41e410, 2022-07-14)"
   sodipodi:docname="logo_uielements_matlab.svg"
   xml:space="preserve"
   inkscape:export-filename="logo_uielements_matlab.png"
   inkscape:export-xdpi="96"
   inkscape:export-ydpi="96"
   xmlns:inkscape="http://www.inkscape.org/namespaces/inkscape"
   xmlns:sodipodi="http://sodipodi.sourceforge.net/DTD/sodipodi-0.dtd"
   xmlns="http://www.w3.org/2000/svg"
   xmlns:svg="http://www.w3.org/2000/svg"
   xmlns:ns1="http://www.iki.fi/pav/software/textext/"><sodipodi:namedview
     id="namedview7"
     pagecolor="#ffffff"
     bordercolor="#000000"
     borderopacity="0.25"
     inkscape:showpageshadow="2"
     inkscape:pageopacity="0.0"
     inkscape:pagecheckerboard="0"
     inkscape:deskcolor="#d1d1d1"
     inkscape:document-units="mm"
     showgrid="false"
     inkscape:zoom="4.1776836"
     inkscape:cx="115.49462"
     inkscape:cy="107.71519"
     inkscape:window-width="1920"
     inkscape:window-height="1009"
     inkscape:window-x="2552"
     inkscape:window-y="363"
     inkscape:window-maximized="1"
     inkscape:current-layer="g5154"
     showguides="false" /><defs
     id="defs2"><linearGradient
   id="linearGradient2053"
   inkscape:swatch="solid"><stop
     style="stop-color:#ffffff;stop-opacity:1;"
     offset="0"
     id="stop2051" /></linearGradient><g
   id="id-9ade4579-a6d9-44f2-a221-15452cd162f6-8">
      <g
   id="id-de4f60e0-0344-4857-835f-847b427725fa-0" />
      <g
   id="id-8c5d231c-49d6-49e8-874d-f471e2f003ca-0">
        <path
   d="m 4.9375,-1.5625 c 0,-0.0625 -0.046875,-0.078125 -0.09375,-0.078125 -0.171875,0 -0.40625,0.15625 -0.421875,0.15625 -0.1875,0.125 -0.234375,0.203125 -0.359375,0.375 -0.296875,0.46875 -0.75,0.796875 -1.390625,0.796875 -0.890625,0 -1.703125,-0.640625 -1.703125,-2.140625 0,-0.890625 0.359375,-2.078125 0.890625,-2.875 0.4375,-0.640625 0.96875,-1.15625 2,-1.15625 0.375,0 0.609375,0.140625 0.609375,0.515625 0,0.34375 -0.359375,1.046875 -0.484375,1.25 -0.0625,0.109375 -0.0625,0.140625 -0.0625,0.15625 0,0.0625 0.0625,0.0625 0.109375,0.0625 0.203125,0 0.578125,-0.21875 0.6875,-0.375 0.03125,-0.046875 0.609375,-1.015625 0.609375,-1.53125 0,-0.546875 -0.453125,-0.625 -0.8125,-0.625 -1.4375,0 -2.625,0.953125 -3.09375,1.515625 C 0.234375,-4.09375 0.125,-2.546875 0.125,-2.03125 0.125,-0.5625 0.859375,0.234375 2.015625,0.234375 3.625,0.234375 4.9375,-1.3125 4.9375,-1.5625 Z m 0,0"
   id="id-33729769-feb4-4ff5-8153-dd1a7baec7ae-4" />
      </g>
      <g
   id="id-ed53c1dc-1109-4541-90fc-f1197d609256-7">
        <path
   d="M 4.84375,-6.1875 H 6.5 c 1.3125,0 1.8125,-0.765625 1.8125,-0.890625 0,-0.046875 -0.03125,-0.0625 -0.09375,-0.0625 -0.109375,0 -0.359375,0.09375 -0.609375,0.265625 C 7.53125,-6.8125 7.5,-6.8125 7.3125,-6.8125 H 2.953125 c -1.234375,0 -2.609375,1.078125 -2.609375,1.890625 0,0.0625 0,0.109375 0.078125,0.109375 0.234375,0 0.859375,-0.328125 0.890625,-0.5625 0,-0.171875 0.015625,-0.359375 0.21875,-0.609375 0.109375,-0.125 0.1875,-0.203125 0.625,-0.203125 h 1.984375 c -0.171875,0.109375 -0.21875,0.25 -0.234375,0.359375 L 2.765625,-1.3125 C 2.65625,-0.828125 2.4375,-0.203125 2.15625,0.453125 2.09375,0.5625 2.09375,0.59375 2.09375,0.609375 c 0,0.0625 0.046875,0.0625 0.09375,0.0625 0.1875,0 0.6875,-0.265625 0.828125,-0.46875 0.0625,-0.109375 0.5,-1.125 0.71875,-1.953125 z m 0,0"
   id="id-1dba2f36-dc5a-41e5-a287-1162ebd5aaa6-9" />
      </g>
    </g><g
   id="id-9ade4579-a6d9-44f2-a221-15452cd162f6-4">
      <g
   id="id-de4f60e0-0344-4857-835f-847b427725fa-00" />
      <g
   id="id-8c5d231c-49d6-49e8-874d-f471e2f003ca-3">
        <path
   d="m 4.9375,-1.5625 c 0,-0.0625 -0.046875,-0.078125 -0.09375,-0.078125 -0.171875,0 -0.40625,0.15625 -0.421875,0.15625 -0.1875,0.125 -0.234375,0.203125 -0.359375,0.375 -0.296875,0.46875 -0.75,0.796875 -1.390625,0.796875 -0.890625,0 -1.703125,-0.640625 -1.703125,-2.140625 0,-0.890625 0.359375,-2.078125 0.890625,-2.875 0.4375,-0.640625 0.96875,-1.15625 2,-1.15625 0.375,0 0.609375,0.140625 0.609375,0.515625 0,0.34375 -0.359375,1.046875 -0.484375,1.25 -0.0625,0.109375 -0.0625,0.140625 -0.0625,0.15625 0,0.0625 0.0625,0.0625 0.109375,0.0625 0.203125,0 0.578125,-0.21875 0.6875,-0.375 0.03125,-0.046875 0.609375,-1.015625 0.609375,-1.53125 0,-0.546875 -0.453125,-0.625 -0.8125,-0.625 -1.4375,0 -2.625,0.953125 -3.09375,1.515625 C 0.234375,-4.09375 0.125,-2.546875 0.125,-2.03125 0.125,-0.5625 0.859375,0.234375 2.015625,0.234375 3.625,0.234375 4.9375,-1.3125 4.9375,-1.5625 Z m 0,0"
   id="id-33729769-feb4-4ff5-8153-dd1a7baec7ae-9" />
      </g>
      <g
   id="id-ed53c1dc-1109-4541-90fc-f1197d609256-3">
        <path
   d="M 4.84375,-6.1875 H 6.5 c 1.3125,0 1.8125,-0.765625 1.8125,-0.890625 0,-0.046875 -0.03125,-0.0625 -0.09375,-0.0625 -0.109375,0 -0.359375,0.09375 -0.609375,0.265625 C 7.53125,-6.8125 7.5,-6.8125 7.3125,-6.8125 H 2.953125 c -1.234375,0 -2.609375,1.078125 -2.609375,1.890625 0,0.0625 0,0.109375 0.078125,0.109375 0.234375,0 0.859375,-0.328125 0.890625,-0.5625 0,-0.171875 0.015625,-0.359375 0.21875,-0.609375 0.109375,-0.125 0.1875,-0.203125 0.625,-0.203125 h 1.984375 c -0.171875,0.109375 -0.21875,0.25 -0.234375,0.359375 L 2.765625,-1.3125 C 2.65625,-0.828125 2.4375,-0.203125 2.15625,0.453125 2.09375,0.5625 2.09375,0.59375 2.09375,0.609375 c 0,0.0625 0.046875,0.0625 0.09375,0.0625 0.1875,0 0.6875,-0.265625 0.828125,-0.46875 0.0625,-0.109375 0.5,-1.125 0.71875,-1.953125 z m 0,0"
   id="id-1dba2f36-dc5a-41e5-a287-1162ebd5aaa6-5" />
      </g>
    </g><g
   id="id-656be4a0-9f2e-484a-928a-e5aeb6302249-0">
      <g
   id="id-286cdd75-7cdd-4851-98a0-c5019fa7d8a2-6" />
      <g
   id="id-57490c00-3f96-422a-adb3-77d78853272d-2">
        <path
   d="m 9.40625,-3.265625 v -0.1875 C 8.84375,-3.734375 8.21875,-4.28125 7.890625,-5.125 H 7.59375 c 0.078125,0.25 0.265625,0.859375 0.953125,1.46875 H 0.90625 c -0.171875,0 -0.34375,0 -0.34375,0.203125 0,0.1875 0.171875,0.1875 0.34375,0.1875 z m -0.359375,1.9375 c 0.1875,0 0.359375,0 0.359375,-0.203125 0,-0.1875 -0.1875,-0.1875 -0.359375,-0.1875 H 0.5625 v 0.1875 C 1.109375,-1.25 1.75,-0.703125 2.0625,0.140625 H 2.375 c -0.078125,-0.25 -0.265625,-0.859375 -0.953125,-1.46875 z m 0,0"
   id="id-e98445fb-0db5-4de9-b8e2-327dde5d1d92-0" />
      </g>
    </g><defs
   id="id-0d28159a-1ed3-4564-80a9-f57e0de401bc">
    <g
   id="id-9ade4579-a6d9-44f2-a221-15452cd162f6">
      <g
   id="id-de4f60e0-0344-4857-835f-847b427725fa" />
      <g
   id="id-8c5d231c-49d6-49e8-874d-f471e2f003ca">
        <path
   d="m 4.9375,-1.5625 c 0,-0.0625 -0.046875,-0.078125 -0.09375,-0.078125 -0.171875,0 -0.40625,0.15625 -0.421875,0.15625 -0.1875,0.125 -0.234375,0.203125 -0.359375,0.375 -0.296875,0.46875 -0.75,0.796875 -1.390625,0.796875 -0.890625,0 -1.703125,-0.640625 -1.703125,-2.140625 0,-0.890625 0.359375,-2.078125 0.890625,-2.875 0.4375,-0.640625 0.96875,-1.15625 2,-1.15625 0.375,0 0.609375,0.140625 0.609375,0.515625 0,0.34375 -0.359375,1.046875 -0.484375,1.25 -0.0625,0.109375 -0.0625,0.140625 -0.0625,0.15625 0,0.0625 0.0625,0.0625 0.109375,0.0625 0.203125,0 0.578125,-0.21875 0.6875,-0.375 0.03125,-0.046875 0.609375,-1.015625 0.609375,-1.53125 0,-0.546875 -0.453125,-0.625 -0.8125,-0.625 -1.4375,0 -2.625,0.953125 -3.09375,1.515625 C 0.234375,-4.09375 0.125,-2.546875 0.125,-2.03125 0.125,-0.5625 0.859375,0.234375 2.015625,0.234375 3.625,0.234375 4.9375,-1.3125 4.9375,-1.5625 Z m 0,0"
   id="id-33729769-feb4-4ff5-8153-dd1a7baec7ae" />
      </g>
      <g
   id="id-ed53c1dc-1109-4541-90fc-f1197d609256">
        <path
   d="M 4.84375,-6.1875 H 6.5 c 1.3125,0 1.8125,-0.765625 1.8125,-0.890625 0,-0.046875 -0.03125,-0.0625 -0.09375,-0.0625 -0.109375,0 -0.359375,0.09375 -0.609375,0.265625 C 7.53125,-6.8125 7.5,-6.8125 7.3125,-6.8125 H 2.953125 c -1.234375,0 -2.609375,1.078125 -2.609375,1.890625 0,0.0625 0,0.109375 0.078125,0.109375 0.234375,0 0.859375,-0.328125 0.890625,-0.5625 0,-0.171875 0.015625,-0.359375 0.21875,-0.609375 0.109375,-0.125 0.1875,-0.203125 0.625,-0.203125 h 1.984375 c -0.171875,0.109375 -0.21875,0.25 -0.234375,0.359375 L 2.765625,-1.3125 C 2.65625,-0.828125 2.4375,-0.203125 2.15625,0.453125 2.09375,0.5625 2.09375,0.59375 2.09375,0.609375 c 0,0.0625 0.046875,0.0625 0.09375,0.0625 0.1875,0 0.6875,-0.265625 0.828125,-0.46875 0.0625,-0.109375 0.5,-1.125 0.71875,-1.953125 z m 0,0"
   id="id-1dba2f36-dc5a-41e5-a287-1162ebd5aaa6" />
      </g>
    </g>
  </defs>
  
  
<g
   id="id-00556858-e371-4555-bc8d-e017d01c18ec"
   style="fill:#ffffff;stroke-width:0">
      <g
   id="id-b3b2947a-91c6-4f34-a83d-3e2e05e90ebf"
   style="fill:#ffffff;stroke-width:0" />
      <g
   id="id-14581b8f-e99a-46ad-8c44-9c0540b9d318"
   style="fill:#ffffff;stroke-width:0">
        <path
   d="m 2.9375,-6.375 c 0,-0.25 0,-0.265625 -0.234375,-0.265625 C 2.078125,-6 1.203125,-6 0.890625,-6 v 0.3125 c 0.203125,0 0.78125,0 1.296875,-0.265625 v 5.171875 c 0,0.359375 -0.03125,0.46875 -0.921875,0.46875 h -0.3125 V 0 c 0.34375,-0.03125 1.203125,-0.03125 1.609375,-0.03125 0.390625,0 1.265625,0 1.609375,0.03125 v -0.3125 h -0.3125 c -0.90625,0 -0.921875,-0.109375 -0.921875,-0.46875 z m 0,0"
   id="id-fb2de0e5-dd16-4f11-b5bc-d1b5e306f95c"
   style="fill:#ffffff;stroke-width:0" />
      </g>
      <g
   id="id-a42420da-700c-4d88-a821-38c092795b80"
   style="fill:#ffffff;stroke-width:0">
        <path
   d="m 1.90625,-0.53125 c 0,-0.28125 -0.234375,-0.53125 -0.515625,-0.53125 -0.296875,0 -0.53125,0.25 -0.53125,0.53125 C 0.859375,-0.234375 1.09375,0 1.390625,0 1.671875,0 1.90625,-0.234375 1.90625,-0.53125 Z m 0,0"
   id="id-5f144065-bbeb-4702-a28f-60f49fc35c2a"
   style="fill:#ffffff;stroke-width:0" />
      </g>
      <g
   id="id-c36534e6-a5cb-4a55-a92a-d8a76cd4cdb3"
   style="fill:#ffffff;stroke-width:0">
        <path
   d="m 4.578125,-3.1875 c 0,-0.796875 -0.046875,-1.59375 -0.390625,-2.328125 -0.453125,-0.96875 -1.28125,-1.125 -1.6875,-1.125 -0.609375,0 -1.328125,0.265625 -1.75,1.1875 -0.3125,0.6875 -0.359375,1.46875 -0.359375,2.265625 0,0.75 0.03125,1.640625 0.453125,2.40625 0.421875,0.796875 1.15625,1 1.640625,1 0.53125,0 1.296875,-0.203125 1.734375,-1.15625 0.3125,-0.6875 0.359375,-1.46875 0.359375,-2.25 z M 2.484375,0 C 2.09375,0 1.5,-0.25 1.328125,-1.203125 1.21875,-1.796875 1.21875,-2.71875 1.21875,-3.3125 c 0,-0.640625 0,-1.296875 0.078125,-1.828125 0.1875,-1.1875 0.9375,-1.28125 1.1875,-1.28125 0.328125,0 0.984375,0.1875 1.171875,1.171875 0.109375,0.5625 0.109375,1.3125 0.109375,1.9375 0,0.75 0,1.421875 -0.109375,2.0625 C 3.5,-0.296875 2.9375,0 2.484375,0 Z m 0,0"
   id="id-21fa0e4b-c7b6-491e-961f-71051fd58859"
   style="fill:#ffffff;stroke-width:0" />
      </g>
    </g><g
   id="g2629">
      <g
   id="g2623" />
      <g
   id="g2627">
        <path
   d="m 9.40625,-3.265625 v -0.1875 C 8.84375,-3.734375 8.21875,-4.28125 7.890625,-5.125 H 7.59375 c 0.078125,0.25 0.265625,0.859375 0.953125,1.46875 H 0.90625 c -0.171875,0 -0.34375,0 -0.34375,0.203125 0,0.1875 0.171875,0.1875 0.34375,0.1875 z m -0.359375,1.9375 c 0.1875,0 0.359375,0 0.359375,-0.203125 0,-0.1875 -0.1875,-0.1875 -0.359375,-0.1875 H 0.5625 v 0.1875 C 1.109375,-1.25 1.75,-0.703125 2.0625,0.140625 H 2.375 c -0.078125,-0.25 -0.265625,-0.859375 -0.953125,-1.46875 z m 0,0"
   id="path2625" />
      </g>
    </g></defs><g
     inkscape:groupmode="layer"
     id="layer2"
     inkscape:label="Capa 2"
     transform="translate(-0.61607902,-69.382763)" /><g
     inkscape:label="Capa 1"
     inkscape:groupmode="layer"
     id="layer1"
     transform="translate(-67.511322,-127.32135)"><text
       xml:space="preserve"
       style="font-size:24.6944px;font-family:Onyx;-inkscape-font-specification:Onyx;opacity:0.5;fill:#ffffff;fill-opacity:0;fill-rule:nonzero;stroke-width:0.2;stroke-dashoffset:3.6"
       x="-47.507099"
       y="201.98213"
       id="text542"><tspan
         sodipodi:role="line"
         id="tspan540"
         style="fill:#ffffff;stroke-width:0.2"
         x="-47.507099"
         y="201.98213" /></text><g
       id="g5154"
       transform="translate(5.8340877,2.9224614)"><path
         fill-rule="nonzero"
         fill="#ff3c3c"
         fill-opacity="1"
         d="m 69.495482,145.48936 v -18.25622 c 0,-1.12034 0.905368,-2.02846 2.029844,-2.02846 h 36.506924 c 1.12447,0 2.02984,0.90812 2.02984,2.02846 v 36.51243 c 0,1.11896 -0.90537,2.02847 -2.02984,2.02847 H 71.525326 c -1.124476,0 -2.029844,-0.90951 -2.029844,-2.02847"
         id="path5776-7-6"
         style="fill:#264653;fill-opacity:1;fill-rule:nonzero;stroke-width:0.352776" /><rect
         style="fill:none;fill-opacity:1;fill-rule:nonzero;stroke:#008080;stroke-width:2.99975;stroke-dasharray:none"
         id="rect22454-7"
         width="37.604961"
         height="37.569603"
         x="70.995407"
         y="126.70456" /><g
         id="g4171"
         transform="translate(-46.588768,18.511106)"><text
           xml:space="preserve"
           style="font-style:normal;font-variant:normal;font-weight:300;font-stretch:normal;font-size:5.89525px;font-family:'Hind Jalandhar';-inkscape-font-specification:'Hind Jalandhar Light';fill:#ffffff;fill-opacity:1;stroke:none;stroke-width:0.047479;stroke-dasharray:none;stroke-dashoffset:3.6"
           x="122.21896"
           y="138.29808"
           id="text1114"><tspan
             sodipodi:role="line"
             style="font-style:normal;font-variant:normal;font-weight:300;font-stretch:normal;font-family:'Hind Jalandhar';-inkscape-font-specification:'Hind Jalandhar Light';fill:#ffffff;fill-opacity:1;stroke:none;stroke-width:0.047479;stroke-dasharray:none"
             x="122.21896"
             y="138.29808"
             id="tspan2559">UIelements</tspan></text></g><g
         id="g4425"
         transform="translate(-2.000216,2.1166667)"><g
           id="use2588"
           transform="matrix(0.20495564,0,0,0.20495564,99.795776,135.23005)"
           style="fill:#ffffff;fill-opacity:1"><path
             d="m 19.921875,-5.5625 c -2.265625,1.453125 -4.28125,2.90625 -7.453125,2.90625 -3.5625,0 -5.703125,-2.09375 -5.703125,-8.09375 H 20.5625 c 0,-4.765625 -1.203125,-10.25 -8.859375,-10.25 -2.796875,0 -5.828125,0.609375 -7.84375,2.65625 -2.109375,2.1875 -2.578125,5.3125 -2.578125,8.234375 v 0.390625 c 0.046875,5.34375 2.75,10.140625 10.890625,10.140625 2.53125,0 4.875,-0.59375 7.1875,-1.625 C 19.671875,-1.375 20.21875,-1.5 20.21875,-1.890625 l -0.04687,-0.84375 z M 6.9375,-13.03125 c 0.21875,-2.484375 1.890625,-4.875 4.625,-4.875 2.96875,0 3.953125,2.65625 4.15625,4.875 z m 0,0"
             id="path37791"
             style="fill:#ffffff;fill-opacity:1" /></g><g
           id="g4431"
           transform="translate(2.7827549)"><g
             id="use6994"
             transform="matrix(0.35277777,0,0,0.35277777,46.349312,162.42611)"
             style="fill:#ffffff;fill-opacity:1"><path
               d="m 133.87499,-78.238892 v 29.734375 h 6.29688 v -29.734375 z m 0,0"
               id="path148409"
               style="fill:#ffffff;fill-opacity:1" /></g><g
             id="use8780"
             transform="matrix(0.35277777,0,0,0.35277777,80.853828,145.33133)"
             style="fill:#ffffff;stroke:none"><path
               d="m 3.90625,-29.78125 v 18.5625 c 0,2.515625 0.125,5.046875 1.40625,7.3125 2.234375,3.90625 7.109375,4.8125 11.21875,4.8125 4.078125,0 8.703125,-0.828125 10.9375,-4.9375 1.1875,-2.265625 1.328125,-4.796875 1.328125,-7.28125 V -29.78125 H 22.96875 v 19.671875 c 0,1.84375 0,3.59375 -1.03125,5.21875 -1.15625,1.671875 -3.25,2.109375 -5.234375,2.109375 -1.84375,0 -3.984375,-0.171875 -5.21875,-1.71875 -1.25,-1.453125 -1.28125,-3.515625 -1.28125,-5.359375 V -29.78125 Z m 0,0"
               id="path162728"
               style="fill:#ffffff;stroke:none" /></g></g></g><g
         transform="matrix(0.605364 0 0 0.605364 73.3867 128.631)"
         ns1:version="1.8.2"
         ns1:texconverter="pdflatex"
         ns1:pdfconverter="inkscape"
         ns1:text="1.1.0"
         ns1:preamble="C:\Users\Alber\AppData\Roaming\inkscape\extensions\textext\default_packages.tex"
         ns1:scale="0.60536391"
         ns1:alignment="middle center"
         ns1:stroke-to-path="0"
         ns1:inkscapeversion="1.2.1"
         ns1:jacobian_sqrt="0.605364"
         style="fill:#ffffff;fill-opacity:1;stroke-width:0"
         id="g43172"><defs
   id="id-afc76973-9967-4ab4-8440-50ba225e2013"
   style="fill:#ffffff;fill-opacity:1;stroke-width:0">
    <g
   id="id-917575cd-eb6f-4321-bc0d-c2a030eae518"
   style="fill:#ffffff;fill-opacity:1;stroke-width:0">
      <g
   id="id-7257a17b-ab50-42a4-b5f5-546f60b22aac"
   style="fill:#ffffff;fill-opacity:1;stroke-width:0" />
      <g
   id="id-57960e5c-760f-4710-a919-42b17c36f8ee"
   style="fill:#ffffff;fill-opacity:1;stroke-width:0">
        <path
   d="m 2.9375,-6.375 c 0,-0.25 0,-0.265625 -0.234375,-0.265625 C 2.078125,-6 1.203125,-6 0.890625,-6 v 0.3125 c 0.203125,0 0.78125,0 1.296875,-0.265625 v 5.171875 c 0,0.359375 -0.03125,0.46875 -0.921875,0.46875 h -0.3125 V 0 c 0.34375,-0.03125 1.203125,-0.03125 1.609375,-0.03125 0.390625,0 1.265625,0 1.609375,0.03125 v -0.3125 h -0.3125 c -0.90625,0 -0.921875,-0.109375 -0.921875,-0.46875 z m 0,0"
   id="id-61ae3be6-d4a0-43f1-9959-0712d3938c93"
   style="fill:#ffffff;fill-opacity:1;stroke-width:0" />
      </g>
      <g
   id="id-f435fa00-47c7-4921-a95d-3ec69870bd2c"
   style="fill:#ffffff;fill-opacity:1;stroke-width:0">
        <path
   d="m 1.90625,-0.53125 c 0,-0.28125 -0.234375,-0.53125 -0.515625,-0.53125 -0.296875,0 -0.53125,0.25 -0.53125,0.53125 C 0.859375,-0.234375 1.09375,0 1.390625,0 1.671875,0 1.90625,-0.234375 1.90625,-0.53125 Z m 0,0"
   id="id-63a1e19a-7c56-4f46-ae36-4d16872c3a94"
   style="fill:#ffffff;fill-opacity:1;stroke-width:0" />
      </g>
      <g
   id="id-cc79f3db-44e8-4d91-96c8-04cc2860d56a"
   style="fill:#ffffff;fill-opacity:1;stroke-width:0">
        <path
   d="m 4.578125,-3.1875 c 0,-0.796875 -0.046875,-1.59375 -0.390625,-2.328125 -0.453125,-0.96875 -1.28125,-1.125 -1.6875,-1.125 -0.609375,0 -1.328125,0.265625 -1.75,1.1875 -0.3125,0.6875 -0.359375,1.46875 -0.359375,2.265625 0,0.75 0.03125,1.640625 0.453125,2.40625 0.421875,0.796875 1.15625,1 1.640625,1 0.53125,0 1.296875,-0.203125 1.734375,-1.15625 0.3125,-0.6875 0.359375,-1.46875 0.359375,-2.25 z M 2.484375,0 C 2.09375,0 1.5,-0.25 1.328125,-1.203125 1.21875,-1.796875 1.21875,-2.71875 1.21875,-3.3125 c 0,-0.640625 0,-1.296875 0.078125,-1.828125 0.1875,-1.1875 0.9375,-1.28125 1.1875,-1.28125 0.328125,0 0.984375,0.1875 1.171875,1.171875 0.109375,0.5625 0.109375,1.3125 0.109375,1.9375 0,0.75 0,1.421875 -0.109375,2.0625 C 3.5,-0.296875 2.9375,0 2.484375,0 Z m 0,0"
   id="id-04ec80b2-cddb-434d-be06-18c4cf9fd67c"
   style="fill:#ffffff;fill-opacity:1;stroke-width:0" />
      </g>
    </g>
  </defs>
  <g
   fill-opacity="1"
   id="id-557276e2-0a3f-4e07-9077-38f82740187d"
   transform="translate(-149.603, -128.124)"
   style="fill:#ffffff;fill-opacity:1;stroke-width:0">
    <g
   transform="translate(148.712, 134.765)"
   style="fill:#ffffff;fill-opacity:1;stroke-width:0"
   id="g1060"><path
   d="m 2.9375,-6.375 c 0,-0.25 0,-0.265625 -0.234375,-0.265625 C 2.078125,-6 1.203125,-6 0.890625,-6 v 0.3125 c 0.203125,0 0.78125,0 1.296875,-0.265625 v 5.171875 c 0,0.359375 -0.03125,0.46875 -0.921875,0.46875 h -0.3125 V 0 c 0.34375,-0.03125 1.203125,-0.03125 1.609375,-0.03125 0.390625,0 1.265625,0 1.609375,0.03125 v -0.3125 h -0.3125 c -0.90625,0 -0.921875,-0.109375 -0.921875,-0.46875 z m 0,0"
   id="id-3f548791-273a-4aa8-8b5a-b3ff39142e59"
   style="fill:#ffffff;fill-opacity:1;stroke-width:0" />
      </g><g
   transform="translate(153.693, 134.765)"
   style="fill:#ffffff;fill-opacity:1;stroke-width:0"
   id="g1063"><path
   d="m 1.90625,-0.53125 c 0,-0.28125 -0.234375,-0.53125 -0.515625,-0.53125 -0.296875,0 -0.53125,0.25 -0.53125,0.53125 C 0.859375,-0.234375 1.09375,0 1.390625,0 1.671875,0 1.90625,-0.234375 1.90625,-0.53125 Z m 0,0"
   id="id-0a4eab51-d856-4f1e-b6a9-faed381f7824"
   style="fill:#ffffff;fill-opacity:1;stroke-width:0" />
      </g><g
   transform="translate(156.461, 134.765)"
   style="fill:#ffffff;fill-opacity:1;stroke-width:0"
   id="g1066"><path
   d="m 2.9375,-6.375 c 0,-0.25 0,-0.265625 -0.234375,-0.265625 C 2.078125,-6 1.203125,-6 0.890625,-6 v 0.3125 c 0.203125,0 0.78125,0 1.296875,-0.265625 v 5.171875 c 0,0.359375 -0.03125,0.46875 -0.921875,0.46875 h -0.3125 V 0 c 0.34375,-0.03125 1.203125,-0.03125 1.609375,-0.03125 0.390625,0 1.265625,0 1.609375,0.03125 v -0.3125 h -0.3125 c -0.90625,0 -0.921875,-0.109375 -0.921875,-0.46875 z m 0,0"
   id="id-e225ef43-586e-4e3c-8708-bb2251a4706f"
   style="fill:#ffffff;fill-opacity:1;stroke-width:0" />
      </g><g
   transform="translate(161.442, 134.765)"
   style="fill:#ffffff;fill-opacity:1;stroke-width:0"
   id="g1069"><path
   d="m 1.90625,-0.53125 c 0,-0.28125 -0.234375,-0.53125 -0.515625,-0.53125 -0.296875,0 -0.53125,0.25 -0.53125,0.53125 C 0.859375,-0.234375 1.09375,0 1.390625,0 1.671875,0 1.90625,-0.234375 1.90625,-0.53125 Z m 0,0"
   id="id-6f0aeae2-fe1e-4b93-a5d5-a0c6417939c8"
   style="fill:#ffffff;fill-opacity:1;stroke-width:0" />
      </g><g
   transform="translate(164.21, 134.765)"
   style="fill:#ffffff;fill-opacity:1;stroke-width:0"
   id="g1072"><path
   d="m 4.578125,-3.1875 c 0,-0.796875 -0.046875,-1.59375 -0.390625,-2.328125 -0.453125,-0.96875 -1.28125,-1.125 -1.6875,-1.125 -0.609375,0 -1.328125,0.265625 -1.75,1.1875 -0.3125,0.6875 -0.359375,1.46875 -0.359375,2.265625 0,0.75 0.03125,1.640625 0.453125,2.40625 0.421875,0.796875 1.15625,1 1.640625,1 0.53125,0 1.296875,-0.203125 1.734375,-1.15625 0.3125,-0.6875 0.359375,-1.46875 0.359375,-2.25 z M 2.484375,0 C 2.09375,0 1.5,-0.25 1.328125,-1.203125 1.21875,-1.796875 1.21875,-2.71875 1.21875,-3.3125 c 0,-0.640625 0,-1.296875 0.078125,-1.828125 0.1875,-1.1875 0.9375,-1.28125 1.1875,-1.28125 0.328125,0 0.984375,0.1875 1.171875,1.171875 0.109375,0.5625 0.109375,1.3125 0.109375,1.9375 0,0.75 0,1.421875 -0.109375,2.0625 C 3.5,-0.296875 2.9375,0 2.484375,0 Z m 0,0"
   id="id-d6dea8eb-0cec-4ef5-8af6-0714d984e10c"
   style="fill:#ffffff;fill-opacity:1;stroke-width:0" />
      </g></g>
</g></g></g></svg>
